<svg width="98" height="50" viewBox="0 0 98 50" fill="none" xmlns="http://www.w3.org/2000/svg">
<rect width="41.6667" height="50" fill="#232323"/>
<path d="M21.772 35.252C19.756 35.252 17.956 34.832 16.372 33.992C14.812 33.128 13.588 31.952 12.7 30.464C11.812 28.976 11.368 27.284 11.368 25.388C11.368 23.468 11.812 21.776 12.7 20.312C13.588 18.824 14.812 17.66 16.372 16.82C17.956 15.98 19.756 15.56 21.772 15.56C23.644 15.56 25.288 15.944 26.704 16.712C28.144 17.456 29.236 18.56 29.98 20.024L26.524 22.04C25.948 21.128 25.24 20.456 24.4 20.024C23.584 19.592 22.696 19.376 21.736 19.376C20.632 19.376 19.636 19.616 18.748 20.096C17.86 20.576 17.164 21.272 16.66 22.184C16.156 23.072 15.904 24.14 15.904 25.388C15.904 26.636 16.156 27.716 16.66 28.628C17.164 29.516 17.86 30.2 18.748 30.68C19.636 31.16 20.632 31.4 21.736 31.4C22.696 31.4 23.584 31.184 24.4 30.752C25.24 30.32 25.948 29.648 26.524 28.736L29.98 30.752C29.236 32.192 28.144 33.308 26.704 34.1C25.288 34.868 23.644 35.252 21.772 35.252Z" fill="white"/>
<path d="M57.304 35.224C55.5547 35.224 53.9973 34.8507 52.632 34.104C51.2667 33.336 50.1893 32.2907 49.4 30.968C48.6107 29.6453 48.216 28.1413 48.216 26.456C48.216 24.7493 48.6107 23.2453 49.4 21.944C50.1893 20.6213 51.2667 19.5867 52.632 18.84C53.9973 18.0933 55.5547 17.72 57.304 17.72C59.0747 17.72 60.6427 18.0933 62.008 18.84C63.3947 19.5867 64.472 20.6107 65.24 21.912C66.0293 23.2133 66.424 24.728 66.424 26.456C66.424 28.1413 66.0293 29.6453 65.24 30.968C64.472 32.2907 63.3947 33.336 62.008 34.104C60.6427 34.8507 59.0747 35.224 57.304 35.224ZM57.304 31.8C58.2853 31.8 59.16 31.5867 59.928 31.16C60.696 30.7333 61.2933 30.1147 61.72 29.304C62.168 28.4933 62.392 27.544 62.392 26.456C62.392 25.3467 62.168 24.3973 61.72 23.608C61.2933 22.7973 60.696 22.1787 59.928 21.752C59.16 21.3253 58.296 21.112 57.336 21.112C56.3547 21.112 55.48 21.3253 54.712 21.752C53.9653 22.1787 53.368 22.7973 52.92 23.608C52.472 24.3973 52.248 25.3467 52.248 26.456C52.248 27.544 52.472 28.4933 52.92 29.304C53.368 30.1147 53.9653 30.7333 54.712 31.16C55.48 31.5867 56.344 31.8 57.304 31.8ZM75.529 35.224C74.0997 35.224 72.7237 35.0427 71.401 34.68C70.0997 34.296 69.065 33.8373 68.297 33.304L69.833 30.264C70.601 30.7547 71.5183 31.16 72.585 31.48C73.6517 31.8 74.7183 31.96 75.785 31.96C77.0437 31.96 77.9503 31.7893 78.505 31.448C79.081 31.1067 79.369 30.648 79.369 30.072C79.369 29.6027 79.177 29.2507 78.793 29.016C78.409 28.76 77.9077 28.568 77.289 28.44C76.6703 28.312 75.977 28.1947 75.209 28.088C74.4623 27.9813 73.705 27.8427 72.937 27.672C72.1903 27.48 71.5077 27.2133 70.889 26.872C70.2703 26.5093 69.769 26.0293 69.385 25.432C69.001 24.8347 68.809 24.0453 68.809 23.064C68.809 21.976 69.1183 21.0373 69.737 20.248C70.3557 19.4373 71.2197 18.8187 72.329 18.392C73.4597 17.944 74.793 17.72 76.329 17.72C77.481 17.72 78.6437 17.848 79.817 18.104C80.9903 18.36 81.961 18.7227 82.729 19.192L81.193 22.232C80.3823 21.7413 79.561 21.4107 78.729 21.24C77.9183 21.048 77.1077 20.952 76.297 20.952C75.081 20.952 74.1743 21.1333 73.577 21.496C73.001 21.8587 72.713 22.3173 72.713 22.872C72.713 23.384 72.905 23.768 73.289 24.024C73.673 24.28 74.1743 24.4827 74.793 24.632C75.4117 24.7813 76.0943 24.9093 76.841 25.016C77.609 25.1013 78.3663 25.24 79.113 25.432C79.8597 25.624 80.5423 25.8907 81.161 26.232C81.801 26.552 82.313 27.0107 82.697 27.608C83.081 28.2053 83.273 28.984 83.273 29.944C83.273 31.0107 82.953 31.9387 82.313 32.728C81.6943 33.5173 80.809 34.136 79.657 34.584C78.505 35.0107 77.129 35.224 75.529 35.224ZM93.1498 35.224C91.2724 35.224 89.8218 34.744 88.7977 33.784C87.7738 32.8027 87.2618 31.3627 87.2618 29.464V14.136H91.2618V29.368C91.2618 30.1787 91.4644 30.808 91.8698 31.256C92.2964 31.704 92.8831 31.928 93.6298 31.928C94.5258 31.928 95.2724 31.6933 95.8698 31.224L96.9898 34.072C96.5204 34.456 95.9444 34.744 95.2618 34.936C94.5791 35.128 93.8751 35.224 93.1498 35.224ZM84.4458 21.24V18.04H95.8378V21.24H84.4458Z" fill="black"/>
</svg>
